# xmcd
#
# Track frame offsets: 
#        150
#        19633
#        34478
#        52427
#        71635
#        100032
#        117790
#        135400
#        155583
#        183533
#        203445
#        223688
#        240770
#        256309
#        274997
#        295870
#        317767
#        340918
#
# Disc length: 4794 seconds
#
# Revision: 0
# Processed by: cddbd v1.5.2PL0 Copyright (c) Steve Scherf et al.
# Submitted via: ExactAudioCopy v1.3
#
DISCID=0c12b812
DTITLE=Various Artist - Akella Presents - vol.137 - Electric Blues  C
DTITLE=D2
DYEAR=2018
DGENRE=Blues
TTITLE0=Rick Tobey - Memory Pain
TTITLE1=Doobie Twisters - Bad Seed
TTITLE2=Dan Doiron - What Did You Expect
TTITLE3=Billy C. Farlow and Bleu Jackson - Get Down And Roll
TTITLE4=Melvin Taylor - A Quitter Never Wins
TTITLE5=Rockin' Johnny - Stranger Blues
TTITLE6=Flavio Guimaraes - You Was Young
TTITLE7=Tad Robinson - Broken Hearted Man
TTITLE8=Larry Garner - High On Music
TTITLE9=Steven Seagal - Hoochie Coochie Man
TTITLE10=Robert Cray - Forever Goodbye
TTITLE11=The Hoodoos - Hey Boogie
TTITLE12=Doc Holliday - One After 909
TTITLE13=Rich Harper - Get Out Of My Life, Woman
TTITLE14=Anders Osbourne - Break The Chain
TTITLE15=Tino Gonzales - Who's Been Talking
TTITLE16=Darrell Mansfield - Dreamin' Schemin'
TTITLE17=Bo Ramsey - I Wanna Get Funky
EXTD=
EXTT0=
EXTT1=
EXTT2=
EXTT3=
EXTT4=
EXTT5=
EXTT6=
EXTT7=
EXTT8=
EXTT9=
EXTT10=
EXTT11=
EXTT12=
EXTT13=
EXTT14=
EXTT15=
EXTT16=
EXTT17=
PLAYORDER=
